<svg width="40" height="40" viewBox="0 0 40 40" fill="none" xmlns="http://www.w3.org/2000/svg">
<path d="M36.6667 19.6667H29.7167L35.1167 14.2667L32.7667 11.9001L25 19.6667H21.6667V16.3334L29.4333 8.56675L27.0667 6.21675L21.6667 11.6167V4.66675H18.3333V11.6167L12.9333 6.21675L10.5666 8.56675L18.3333 16.3334V19.6667H15L7.23331 11.9001L4.88331 14.2667L10.2833 19.6667H3.33331V23.0001H10.2833L4.88331 28.4001L7.23331 30.7667L15 23.0001H18.3333V26.3334L10.5666 34.1001L12.9333 36.4501L18.3333 31.0501V38.0001H21.6667V31.0501L27.0667 36.4501L29.4333 34.1001L21.6667 26.3334V23.0001H25L32.7667 30.7667L35.1167 28.4001L29.7167 23.0001H36.6667V19.6667Z" fill="#00347B"/>
</svg>
