<svg width="40" height="40" viewBox="0 0 40 40" fill="none" xmlns="http://www.w3.org/2000/svg">
<path d="M32.95 12.05L32.9666 12.0333L26.7666 5.83333L25 7.6L28.5166 11.1167C26.95 11.7167 25.8333 13.2167 25.8333 15C25.8333 17.3 27.7 19.1667 30 19.1667C30.6 19.1667 31.15 19.0333 31.6666 18.8167V30.8333C31.6666 31.75 30.9166 32.5 30 32.5C29.0833 32.5 28.3333 31.75 28.3333 30.8333V23.3333C28.3333 21.5 26.8333 20 25 20H23.3333V8.33333C23.3333 6.5 21.8333 5 20 5H9.99996C8.16663 5 6.66663 6.5 6.66663 8.33333V35H23.3333V22.5H25.8333V30.8333C25.8333 33.1333 27.7 35 30 35C32.3 35 34.1666 33.1333 34.1666 30.8333V15C34.1666 13.85 33.7 12.8 32.95 12.05ZM20 16.6667H9.99996V8.33333H20V16.6667ZM30 16.6667C29.0833 16.6667 28.3333 15.9167 28.3333 15C28.3333 14.0833 29.0833 13.3333 30 13.3333C30.9166 13.3333 31.6666 14.0833 31.6666 15C31.6666 15.9167 30.9166 16.6667 30 16.6667Z" fill="#003478"/>
</svg>
