<svg width="40" height="40" viewBox="0 0 40 40" fill="none" xmlns="http://www.w3.org/2000/svg">
<path d="M31.5333 8.35008C31.2 7.36675 30.2667 6.66675 29.1667 6.66675H10.8333C9.73333 6.66675 8.81667 7.36675 8.46667 8.35008L5 18.3334V31.6667C5 32.5834 5.75 33.3334 6.66667 33.3334H8.33333C9.25 33.3334 10 32.5834 10 31.6667V30.0001H30V31.6667C30 32.5834 30.75 33.3334 31.6667 33.3334H33.3333C34.25 33.3334 35 32.5834 35 31.6667V18.3334L31.5333 8.35008ZM10.8333 25.0001C9.45 25.0001 8.33333 23.8834 8.33333 22.5001C8.33333 21.1167 9.45 20.0001 10.8333 20.0001C12.2167 20.0001 13.3333 21.1167 13.3333 22.5001C13.3333 23.8834 12.2167 25.0001 10.8333 25.0001ZM29.1667 25.0001C27.7833 25.0001 26.6667 23.8834 26.6667 22.5001C26.6667 21.1167 27.7833 20.0001 29.1667 20.0001C30.55 20.0001 31.6667 21.1167 31.6667 22.5001C31.6667 23.8834 30.55 25.0001 29.1667 25.0001ZM8.33333 16.6667L10.8333 9.16675H29.1667L31.6667 16.6667H8.33333Z" fill="#003478"/>
</svg>
