<svg width="30" height="30" viewBox="0 0 30 30" fill="none" xmlns="http://www.w3.org/2000/svg">
<path d="M17.9394 0L15.4844 2.44892C16.3231 3.76193 17.1619 5.07494 18.0006 6.391C19.8648 8.25059 21.7321 10.1132 23.5962 11.9728C24.9125 12.8095 26.2288 13.6461 27.545 14.4798L30 12.0308L25.5798 4.40927L17.9394 0ZM28.6072 15.1912C28.7511 19.0203 27.3552 22.8952 24.4258 25.8205C18.8393 31.3932 9.77858 31.3932 4.19213 25.8205C-1.39738 20.2478 -1.39738 11.2094 4.19213 5.63373C7.13076 2.70236 11.0336 1.31301 14.8814 1.46874L14.2539 2.09471L17.3517 6.94369L17.4435 7.03835C19.3107 8.89794 21.1749 10.7606 23.0422 12.6232L23.134 12.7148L27.9981 15.805L28.6072 15.1912ZM4.62681 15.7989C4.88087 15.5973 4.92067 15.2279 4.71558 14.9744L2.72894 12.5102C2.52691 12.2599 2.15652 12.2171 1.90552 12.4217L1.89633 12.4278C1.64226 12.6293 1.60247 12.9988 1.80756 13.2522L3.79419 15.7164C3.99622 15.9668 4.36661 16.0096 4.61762 15.805L4.62681 15.7989ZM10.1275 7.15133L11.3152 4.09476C11.4316 3.79246 11.2816 3.45352 10.9816 3.33749L10.9693 3.33444C10.6663 3.2184 10.3265 3.36802 10.2102 3.67032L9.0225 6.72383C8.90618 7.02613 9.05617 7.36507 9.35616 7.48111L9.3684 7.48416C9.67145 7.60325 10.0112 7.45362 10.1275 7.15133ZM23.8075 16.3546L25.8859 18.9287C26.088 19.1791 26.4583 19.2219 26.7094 19.0173L26.7185 19.0081C26.9726 18.8066 27.0124 18.4371 26.8073 18.1837L24.7288 15.6096C24.5268 15.3592 24.1564 15.3164 23.9054 15.521L23.8962 15.5271C23.6452 15.7348 23.6054 16.1042 23.8075 16.3546ZM18.4781 24.3304L17.2751 27.4297C17.1588 27.732 17.3088 28.0709 17.6088 28.187L17.621 28.19C17.9241 28.3061 18.2639 28.1564 18.3802 27.8572L19.5832 24.7579C19.6995 24.4556 19.5495 24.1166 19.2495 24.0006L19.2373 23.9976C18.9373 23.8785 18.5945 24.0281 18.4781 24.3304ZM9.00719 23.6159L5.70124 24.1289C5.38289 24.1777 5.16249 24.477 5.21147 24.7945L5.21453 24.8067C5.26351 25.1274 5.56349 25.3472 5.8849 25.2953L9.19086 24.7823C9.50921 24.7335 9.72961 24.4342 9.68063 24.1166L9.67757 24.1044C9.62859 23.7838 9.32861 23.564 9.00719 23.6159ZM18.2455 11.7957C17.9516 11.5056 17.4802 11.5056 17.1894 11.7957C16.8956 12.0889 16.8956 12.5591 17.1894 12.8492C17.4802 13.1423 17.9547 13.1423 18.2455 12.8492C18.5363 12.5591 18.5363 12.0858 18.2455 11.7957ZM12.8672 10.3606C12.4693 10.4674 12.2336 10.8766 12.3376 11.2736C12.4448 11.6705 12.855 11.9056 13.2529 11.7988C13.6508 11.6919 13.8865 11.2827 13.7825 10.8888C13.6753 10.4888 13.2651 10.2537 12.8672 10.3606ZM8.93067 14.2904C8.82353 14.6874 9.06229 15.0966 9.45717 15.2034C9.85511 15.3103 10.2653 15.0752 10.3724 14.6752C10.4796 14.2782 10.2408 13.8691 9.84287 13.7652C9.44799 13.6584 9.03781 13.8904 8.93067 14.2904ZM10.3724 19.6555C10.6663 19.9486 11.1377 19.9486 11.4285 19.6555C11.7224 19.3623 11.7224 18.8921 11.4285 18.602C11.1346 18.3119 10.6632 18.3119 10.3724 18.602C10.0816 18.8921 10.0816 19.3623 10.3724 19.6555ZM15.7538 21.0906C16.1517 20.9837 16.3874 20.5746 16.2803 20.1807C16.1732 19.7837 15.766 19.5455 15.3681 19.6524C14.9702 19.7593 14.7345 20.1685 14.8385 20.5654C14.9457 20.9624 15.3558 21.1944 15.7538 21.0906ZM19.6903 17.1607C19.7975 16.7638 19.5587 16.3546 19.1638 16.2508C18.7659 16.1439 18.3557 16.3821 18.2486 16.776C18.1414 17.173 18.3802 17.5821 18.7781 17.689C19.173 17.7928 19.5832 17.5577 19.6903 17.1607ZM19.9903 10.0369C18.4353 8.48571 16.3905 7.70707 14.3518 7.70707C12.3101 7.70707 10.2684 8.48266 8.71333 10.0369C7.15525 11.5911 6.37774 13.6278 6.37774 15.6615C6.37774 17.6982 7.15525 19.7349 8.71333 21.2891C10.2684 22.8403 12.3131 23.6189 14.3518 23.6189C16.3936 23.6189 18.4353 22.8433 19.9903 21.2891C21.5484 19.7349 22.3259 17.6982 22.3259 15.6615C22.3259 13.6248 21.5484 11.5911 19.9903 10.0369ZM20.7403 15.6615C20.7403 17.2951 20.1158 18.9257 18.87 20.1715C17.621 21.4143 15.9864 22.0372 14.3518 22.0372C12.7172 22.0372 11.0795 21.4143 9.83368 20.1715C8.58477 18.9257 7.96337 17.2951 7.96337 15.6615C7.96337 14.0309 8.58783 12.4003 9.83368 11.1545C11.0826 9.9117 12.7172 9.28879 14.3518 9.28879C15.9864 9.28879 17.621 9.9117 18.87 11.1545C20.1189 12.4003 20.7403 14.0309 20.7403 15.6615ZM12.1142 13.5332C10.902 14.7424 10.902 16.7058 12.1142 17.915C13.3264 19.1241 15.2916 19.1241 16.5068 17.915C17.719 16.7058 17.719 14.7424 16.5068 13.5332C15.2916 12.324 13.3264 12.324 12.1142 13.5332Z" fill="#003478"/>
</svg>
