<svg width="40" height="35" viewBox="0 0 40 35" fill="none" xmlns="http://www.w3.org/2000/svg">
<path fill-rule="evenodd" clip-rule="evenodd" d="M14.1862 34.1157L10.3841 29.7975H7.76693C6.85221 29.7975 6.10352 28.9465 6.10352 27.9068V24.6876H4.51823V28.4544C4.51823 29.2573 3.9388 29.916 3.23242 29.916H1.28581C0.579427 29.916 0 29.2573 0 28.4544V15.6888C0 14.8858 0.579427 14.2272 1.28581 14.2272H3.23242C3.9388 14.2272 4.51823 14.8858 4.51823 15.6888V19.4555H6.10352V15.9922C6.10352 14.9524 6.85221 14.1014 7.76693 14.1014H10.5469L14.4759 9.35405C14.9316 8.90263 15.5371 8.74352 16.2435 8.77683H32.4316C32.9915 8.84713 33.418 9.09134 33.6784 9.55016C33.9388 10.0016 33.8965 10.2569 33.8965 10.7638V19.4555H35.4818V15.6888C35.4818 14.8858 36.0612 14.2272 36.7676 14.2272H38.7142C39.4206 14.2272 40 14.8858 40 15.6888V28.4544C40 29.2573 39.4206 29.916 38.7142 29.916H36.7676C36.0612 29.916 35.4818 29.2573 35.4818 28.4544V24.6876H33.8965V25.028C33.8965 26.0382 33.9225 26.6487 33.3561 27.4849C33.2487 27.644 33.1283 27.7957 32.9948 27.9364L27.1908 34.3969C26.901 34.7632 26.4616 34.963 25.8822 35H15.9863C15.2474 34.963 14.6452 34.6744 14.1862 34.1157ZM20.7389 22.8597L16.6243 22.4194L20.0358 13.9238H24.7005L22.054 18.7969L26.8132 19.3963L18.0762 31.3183L20.7389 22.8597ZM16.9206 0H28.151C28.8574 0 29.4368 0.658632 29.4368 1.46157V3.67428C29.4368 4.47722 28.8574 5.13585 28.151 5.13585H24.8372V6.99704H20.2344V5.13585H16.9206C16.2142 5.13585 15.6348 4.47722 15.6348 3.67428V1.46157C15.6348 0.658632 16.2142 0 16.9206 0Z" fill="#003478"/>
</svg>
