<svg width="40" height="40" viewBox="0 0 40 40" fill="none" xmlns="http://www.w3.org/2000/svg">
<rect width="40" height="40" rx="20" fill="#003478"/>
<path d="M27.4999 19.9998C28.4299 19.9998 29.2799 20.2798 29.9999 20.7598V15.9998C29.9999 14.8998 29.0999 13.9998 27.9999 13.9998H21.7099L20.6499 12.9398L22.0599 11.5298L21.3499 10.8198L17.8199 14.3498L18.5299 15.0598L19.9399 13.6498L20.9999 14.7098V16.9998C20.9999 18.0998 20.0999 18.9998 18.9999 18.9998H18.4599C19.4099 20.0598 19.9999 21.4598 19.9999 22.9998C19.9999 23.3398 19.9599 23.6698 19.9099 23.9998H23.0499C23.2999 21.7498 25.1899 19.9998 27.4999 19.9998Z" fill="white"/>
<path d="M27.5 21C25.57 21 24 22.57 24 24.5C24 26.43 25.57 28 27.5 28C29.43 28 31 26.43 31 24.5C31 22.57 29.43 21 27.5 21ZM27.5 26C26.67 26 26 25.33 26 24.5C26 23.67 26.67 23 27.5 23C28.33 23 29 23.67 29 24.5C29 25.33 28.33 26 27.5 26Z" fill="white"/>
<path d="M12 17H17C17 15.9 16.1 15 15 15H12C11.45 15 11 15.45 11 16C11 16.55 11.45 17 12 17Z" fill="white"/>
<path d="M17.83 21.82L17.65 21.35L18.58 21C18.12 19.94 17.3 19.09 16.27 18.57L15.87 19.46L15.41 19.25L15.81 18.35C15.26 18.13 14.64 18 14 18C13.47 18 12.96 18.11 12.48 18.26L12.82 19.17L12.35 19.35L12 18.42C10.94 18.88 10.09 19.7 9.57 20.73L10.46 21.13L10.25 21.59L9.35 21.19C9.13 21.74 9 22.36 9 23C9 23.53 9.11 24.04 9.26 24.52L10.17 24.18L10.35 24.65L9.42 25C9.88 26.06 10.7 26.91 11.73 27.43L12.13 26.54L12.59 26.75L12.19 27.65C12.74 27.87 13.36 28 14 28C14.53 28 15.04 27.89 15.52 27.74L15.18 26.83L15.65 26.65L16 27.58C17.06 27.12 17.91 26.3 18.43 25.27L17.54 24.87L17.75 24.41L18.65 24.81C18.87 24.26 19 23.64 19 23C19 22.47 18.89 21.96 18.74 21.48L17.83 21.82ZM15.15 25.77C13.62 26.4 11.86 25.68 11.23 24.15C10.6 22.62 11.32 20.86 12.85 20.23C14.38 19.6 16.14 20.32 16.77 21.85C17.41 23.38 16.68 25.14 15.15 25.77Z" fill="white"/>
</svg>
