<?xml version="1.0" encoding="utf-8"?>
<!-- Svg Vector Icons : http://www.onlinewebfonts.com/icon -->
<!DOCTYPE svg PUBLIC "-//W3C//DTD SVG 1.1//EN" "http://www.w3.org/Graphics/SVG/1.1/DTD/svg11.dtd">
<svg version="1.1" xmlns="http://www.w3.org/2000/svg" xmlns:xlink="http://www.w3.org/1999/xlink" x="0px" y="0px" fill="#003478" viewBox="0 0 1000 1000" enable-background="new 0 0 1000 1000" xml:space="preserve">
<metadata> Svg Vector Icons : http://www.onlinewebfonts.com/icon </metadata>
<g><g transform="translate(0.000000,511.000000) scale(0.100000,-0.100000)"><path d="M717,2285.8C374.2,1506.3,96.1,859.9,100,848.2c15.7-43.1,1183-1353.4,1202.6-1347.5c9.8,3.9,387.8,401.5,836.3,881.4l816.7,877.5l-162.6,248.7c-618.9,949.9-1410.2,2152.5-1429.8,2172.1C1347.7,3696,1189,3353.2,717,2285.8z"/><path d="M7137.4,2234.9c-154.7-29.4-350.6-141-744.3-419.2l-360.4-254.6v-258.5c0-254.6,0-258.5-52.9-297.7c-58.8-47-113.6-39.2-166.5,21.6c-27.4,31.3-35.3,74.4-35.3,195.9v156.7l-78.3-62.7l-78.3-62.7V946.1c0-274.2-3.9-313.4-35.2-340.8c-72.5-66.6-186.1-27.4-209.6,70.5c-5.9,23.5-11.8,119.5-15.7,213.5l-3.9,170.4l-101.9-58.8l-103.8-60.7V613.1c0-301.6-3.9-331-39.2-364.3c-52.9-47-137.1-43.1-180.2,9.8c-29.4,37.2-35.3,82.3-35.3,313.4v268.3l-101.9-29.4c-58.8-15.7-195.9-29.4-309.5-29.4c-193.9-2-233.1,3.9-658.1,119.5c-481.8,129.3-593.5,144.9-648.3,86.2c-133.2-139.1-1662.9-1894-1666.8-1913.6c-3.9-11.7,166.5-344.7,374.1-736.4l381.9-712.9l681.6-542.5c376.1-297.7,689.4-542.5,697.3-542.5c11.7-2,953.8,1022.4,981.3,1069.4c9.8,15.7-62.7,115.6-199.8,274.2c-264.4,305.5-266.4,315.3-103.8,468.1c60.7,58.8,139.1,121.4,170.4,139.1c33.3,17.6,301.6,72.5,601.3,121.4l540.6,90.1L6839.7,21.6c660.1,724.7,1212.4,1339.7,1226.1,1365.2c13.7,25.5,29.4,96,35.3,158.7c17.6,174.3-43.1,315.3-205.7,477.9c-97.9,97.9-158.6,139.1-246.8,172.4C7513.4,2246.6,7288.2,2264.2,7137.4,2234.9z"/><path d="M8945.2,1608.1c-88.1-68.5-2685.3-2896.8-2714.7-2955.6c-54.8-109.7-19.6-176.3,199.8-378c546.5-505.3,571.9-521,703.2-454.4c90.1,45,2720.5,2908.6,2751.9,2996.7c41.1,115.6,11.7,158.7-299.7,446.6c-160.6,150.8-327.1,297.7-368.2,329.1C9123.4,1661,9019.6,1668.8,8945.2,1608.1z"/><path d="M8768.9-797.1c-19.6-5.9-166.5-158.7-327.1-334.9c-217.4-239-291.8-336.9-293.8-374.1c0-43.1,66.6-103.8,438.7-395.7c438.7-346.7,519-391.7,548.4-315.3c15.7,39.2,11.7,493.6-3.9,879.4c-15.7,331-13.7,327.1-188,477.9C8849.2-777.5,8831.6-771.6,8768.9-797.1z"/></g></g>
</svg>