<svg width="40" height="40" viewBox="0 0 40 40" fill="none" xmlns="http://www.w3.org/2000/svg">
<path d="M10.0833 13.4167C5.53334 17.9667 5.53334 25.3667 10.0833 29.9167C12.3667 32.2 15.35 33.3333 18.3333 33.3333C21.3167 33.3333 24.3 32.2 26.5833 29.9167C32.3833 24.1167 33.3333 6.66667 33.3333 6.66667C33.3333 6.66667 15.8833 7.61667 10.0833 13.4167ZM24.2333 27.5667C22.65 29.1333 20.5667 30 18.3333 30C16.85 30 15.45 29.5833 14.2 28.8667C15.7333 24.0667 18.5667 19.85 22.3333 16.6667C17.95 18.9333 14.2667 22.4333 11.7167 26.6667C9.25 23.4 9.46667 18.75 12.45 15.7667C15.35 12.8667 23.4 11.0833 29.6667 10.3333C28.9167 16.6 27.1333 24.65 24.2333 27.5667Z" fill="#003478"/>
</svg>
