<svg width="30" height="25" viewBox="0 0 30 25" fill="none" xmlns="http://www.w3.org/2000/svg">
<path fill-rule="evenodd" clip-rule="evenodd" d="M10.6396 24.3683L7.78809 21.284H5.8252C5.13916 21.284 4.57764 20.6761 4.57764 19.9334V17.634H3.38867V20.3246C3.38867 20.8981 2.9541 21.3685 2.42432 21.3685H0.964355C0.43457 21.3685 0 20.8981 0 20.3246V11.2063C0 10.6327 0.43457 10.1623 0.964355 10.1623H2.42432C2.9541 10.1623 3.38867 10.6327 3.38867 11.2063V13.8968H4.57764V11.423C4.57764 10.6803 5.13916 10.0724 5.8252 10.0724H7.91016L10.8569 6.68147C11.1987 6.35902 11.6528 6.24537 12.1826 6.26916H24.3237C24.7437 6.31938 25.0635 6.49382 25.2588 6.82155C25.4541 7.14399 25.4224 7.32636 25.4224 7.68845V13.8968H26.6113V11.2063C26.6113 10.6327 27.0459 10.1623 27.5757 10.1623H29.0356C29.5654 10.1623 30 10.6327 30 11.2063V20.3246C30 20.8981 29.5654 21.3685 29.0356 21.3685H27.5757C27.0459 21.3685 26.6113 20.8981 26.6113 20.3246V17.634H25.4224V17.8772C25.4224 18.5987 25.4419 19.0348 25.0171 19.6321C24.9365 19.7457 24.8462 19.8541 24.7461 19.9545L20.3931 24.5692C20.1758 24.8308 19.8462 24.9736 19.4116 25H11.9897C11.4355 24.9736 10.9839 24.7674 10.6396 24.3683ZM15.5542 16.3284L12.4683 16.0138L15.0269 9.94555H18.5254L16.5405 13.4264L20.1099 13.8545L13.5571 22.3702L15.5542 16.3284ZM12.6904 0H21.1133C21.6431 0 22.0776 0.470451 22.0776 1.04398V2.62448C22.0776 3.19801 21.6431 3.66846 21.1133 3.66846H18.6279V4.99789H15.1758V3.66846H12.6904C12.1606 3.66846 11.7261 3.19801 11.7261 2.62448V1.04398C11.7261 0.470451 12.1606 0 12.6904 0Z" fill="#003478"/>
</svg>
