<svg width="40" height="40" viewBox="0 0 40 40" fill="none" xmlns="http://www.w3.org/2000/svg">
<path d="M20 8.33334C13.55 8.33334 8.33332 13.55 8.33332 20H11.6667C11.6667 15.4 15.4 11.6667 20 11.6667C24.6 11.6667 28.3333 15.4 28.3333 20H31.6667C31.6667 13.55 26.45 8.33334 20 8.33334ZM21.6667 23.8167C23.1333 23.1667 24.1667 21.7167 24.1667 20C24.1667 17.7 22.3 15.8333 20 15.8333C17.7 15.8333 15.8333 17.7 15.8333 20C15.8333 21.7 16.8667 23.1667 18.3333 23.8167V29.3167L12.65 35L15 37.35L20 32.35L25 37.35L27.35 35L21.6667 29.3167V23.8167ZM20 1.66667C9.88332 1.66667 1.66666 9.88334 1.66666 20H4.99999C4.99999 11.7167 11.7167 5 20 5C28.2833 5 35 11.7167 35 20H38.3333C38.3333 9.88334 30.1167 1.66667 20 1.66667Z" fill="#003478"/>
</svg>
