<svg width="40" height="40" viewBox="0 0 40 40" fill="none" xmlns="http://www.w3.org/2000/svg">
<path d="M20 5C19.2334 5 18.45 5.06667 17.6667 5.23333C13.0667 6.11667 9.40002 9.83333 8.53335 14.4333C7.73335 18.7833 9.33335 22.7833 12.2334 25.3667C12.95 26 13.3334 26.8833 13.3334 27.8167V31.6667C13.3334 33.5 14.8334 35 16.6667 35H17.1334C17.7167 36 18.7667 36.6667 20 36.6667C21.2334 36.6667 22.3 36 22.8667 35H23.3334C25.1667 35 26.6667 33.5 26.6667 31.6667V27.8167C26.6667 26.9 27.0333 26 27.7333 25.3833C30.15 23.25 31.6667 20.1333 31.6667 16.6667C31.6667 10.2167 26.45 5 20 5ZM23.3334 28.3333H16.6667V26.6667H23.3334V28.3333ZM16.6667 31.6667V30H23.3334V31.6667H16.6667ZM25.5167 22.9C25.3667 23.0333 25.25 23.2 25.1167 23.3333H14.8667C14.7334 23.1833 14.6167 23.0167 14.4667 22.8833C12.2667 20.9167 11.2834 17.9833 11.8167 15.05C12.4167 11.8167 15.0834 9.13333 18.3 8.5C18.8667 8.38333 19.4334 8.33333 20 8.33333C24.6 8.33333 28.3334 12.0667 28.3334 16.6667C28.3334 19.05 27.3167 21.3167 25.5167 22.9Z" fill="#003478"/>
<path d="M20.8334 18.3333H19.1667V23.3333H20.8334V18.3333Z" fill="#003478"/>
<path d="M17.2992 14.7895L16.1207 15.968L19.6562 19.5035L20.8347 18.325L17.2992 14.7895Z" fill="#003478"/>
<path d="M19.1684 18.342L20.3469 19.5205L23.8824 15.985L22.7039 14.8065L19.1684 18.342Z" fill="#003478"/>
</svg>
