<svg width="40" height="40" viewBox="0 0 40 40" fill="none" xmlns="http://www.w3.org/2000/svg">
<rect width="40" height="40" rx="20" fill="#003478"/>
<path d="M25 14H23V11C23 10.45 22.55 10 22 10H18C17.45 10 17 10.45 17 11V14H15C13.9 14 13 14.9 13 16V27C13 28.1 13.9 29 15 29C15 29.55 15.45 30 16 30C16.55 30 17 29.55 17 29H23C23 29.55 23.45 30 24 30C24.55 30 25 29.55 25 29C26.1 29 27 28.1 27 27V16C27 14.9 26.1 14 25 14ZM17.5 26H16V17H17.5V26ZM20.75 26H19.25V17H20.75V26ZM21.5 14H18.5V11.5H21.5V14ZM24 26H22.5V17H24V26Z" fill="white"/>
</svg>
